<svg xmlns="http://www.w3.org/2000/svg" viewBox="0 0 81.43 88.29"><defs><style>.cls-1{fill:#e6dfd7;}.cls-2{fill:#080807;}.cls-3{fill:#282827;}.cls-4{fill:#808180;}.cls-5{fill:#5a7343;}.cls-6{fill:#fde2cd;}.cls-7{fill:#868941;}.cls-8{fill:#597242;}.cls-9{fill:#5a7141;}.cls-10{fill:#fef1e0;}</style></defs><title>Слой5 Изображение</title><g id="Слой_2" data-name="Слой 2"><g id="Слой5_Изображение" data-name="Слой5 Изображение"><path class="cls-1" d="M77,21.12c.42.28.39.27.21.87,0,.18.12.44.19.65,1,2.82,2.21,5.57,2.92,8.45a56.28,56.28,0,0,1,1.22,8.58,71.85,71.85,0,0,1,.25,7.76c-.1,4.61-.34,9.21-2.14,13.56a15.48,15.48,0,0,0-.49,1.68,4,4,0,0,0-.83.8c-1.11,1.92-2.21,3.84-3.23,5.8-.5,1-1.08,1-2.1.86-3.27-.57-6.62-.7-9.67-2.21l-.45-.28h0c-.23-.27-.43-.55-.67-.81A38.72,38.72,0,0,1,52.7,50.72a69.65,69.65,0,0,1-2.34-14,78,78,0,0,1,.4-13.5c.51-5,2.39-9.57,4.26-14.14.66-1.61,1.39-3.22,3-4.11.44.18.9.33,1.32.54a41.69,41.69,0,0,1,10.36,7C72,15.26,74.24,18,76.5,20.72A2.73,2.73,0,0,0,77,21.12Z" transform="translate(-0.4 -0.54)"/><path class="cls-2" d="M69.75,12.53a41.69,41.69,0,0,0-10.36-7C59,5.3,58.51,5.15,58.07,5a41.62,41.62,0,0,0-5-1.7c-2.78-.58-5.61-.89-8.42-1.31-1.94.12-3.87.36-5.81.33-3.66-.07-7,1.12-10.29,2.46a31.78,31.78,0,0,0-11.11,6.61.85.85,0,0,0-.2.65,68.38,68.38,0,0,0,.44,7,46.54,46.54,0,0,0,6.49,17.22c1.53,2.51,3.39,4.81,5.1,7.2h0l.22.3,3.37,3.85,4.08,4h0l.24.28,5.08,4.33.07,0h.09l.75.71.51.4.71.5h0a1.79,1.79,0,0,0,.3.36c3.86,2.29,7.67,4.69,11.62,6.81a55.18,55.18,0,0,0,6.62,2.61h0l.45.28c3,1.51,6.4,1.64,9.67,2.21,1,.18,1.6.1,2.1-.86,1-2,2.12-3.88,3.23-5.8a4,4,0,0,1,.83-.8,10.5,10.5,0,0,1-.5,2.42c-2.53,5.35-5.32,10.52-10.06,14.35a40.41,40.41,0,0,1-18.5,8.71A36.54,36.54,0,0,1,35,87.92,47.94,47.94,0,0,1,13.8,76.82C6.63,70.38,3.05,62.13,1.23,53a44.74,44.74,0,0,1,1.94-23.9c2.9-8.21,8.31-14.68,15.05-20,7.87-6.21,17-8.85,27-8.52h.6l.58,0c2.12.37,4.24.73,6.36,1.11A28.47,28.47,0,0,1,63.11,6.15C65.91,8,68.39,10.31,71,12.43Zm3.8,58.9c-1,0-1.69.06-2.39,0a42.47,42.47,0,0,1-11.08-2.71c-15.3-5.93-27.27-16.09-36.3-29.66-5.06-7.6-8.35-15.94-7.89-25.35a3.56,3.56,0,0,0-.17-.81,2.65,2.65,0,0,0-.37.24Q.89,27.88,2.62,48.45a42.82,42.82,0,0,0,7.17,20.1c3.29,5,7.92,8.54,12.76,11.81a35.13,35.13,0,0,0,18.9,6c8.84.28,16.72-2.71,23.93-7.57A73.2,73.2,0,0,0,72,73.37,12.91,12.91,0,0,0,73.55,71.43Z" transform="translate(-0.4 -0.54)"/><path class="cls-3" d="M69.75,12.53l1.27-.1a24.65,24.65,0,0,1,6,8.22,1.22,1.22,0,0,1,0,.47,2.73,2.73,0,0,1-.53-.4C74.24,18,72,15.26,69.75,12.53Z" transform="translate(-0.4 -0.54)"/><path class="cls-4" d="M46.37.6l-.58,0Z" transform="translate(-0.4 -0.54)"/><path class="cls-1" d="M77.84,22.48h.08a.38.38,0,0,1,0,.1h-.14Z" transform="translate(-0.4 -0.54)"/><path class="cls-5" d="M44.64,2c2.81.42,5.64.73,8.42,1.31a41.62,41.62,0,0,1,5,1.7c-1.66.89-2.39,2.5-3,4.11-1.87,4.57-3.75,9.14-4.26,14.14a78,78,0,0,0-.4,13.5,69.65,69.65,0,0,0,2.34,14,38.72,38.72,0,0,0,9.55,16.11c.24.26.44.54.67.81A55.18,55.18,0,0,1,56.3,65c-3.95-2.12-7.76-4.52-11.62-6.81a1.79,1.79,0,0,1-.3-.36l1.38.1c-.21-3.35-.41-6.6-.63-10,1,1.39,1.51,3.31,3.9,3.32a13,13,0,0,0,.58-3.63A23.91,23.91,0,0,0,48.2,42c-.89-2.33-2.09-4.54-3.15-6.81,1.58-1.46,1.27-3.44.84-5.2-.7-2.85-1.73-5.63-2.71-8.41a18,18,0,0,1-1.41-6.71c.78,1.82,1.36,3.47,2.19,5a3.75,3.75,0,0,0,1.89,1.42,1.53,1.53,0,0,0,1.36-.65,9.78,9.78,0,0,0,1-3.28A28.74,28.74,0,0,0,44.64,2Z" transform="translate(-0.4 -0.54)"/><path class="cls-5" d="M63.36,67.92l-.45-.28Z" transform="translate(-0.4 -0.54)"/><path class="cls-6" d="M73.55,71.43A12.91,12.91,0,0,1,72,73.37a73.2,73.2,0,0,1-6.66,5.44c-7.21,4.86-15.09,7.85-23.93,7.57a35.13,35.13,0,0,1-18.9-6c-4.84-3.27-9.47-6.81-12.76-11.81a42.82,42.82,0,0,1-7.17-20.1Q.86,27.89,15.35,13.13a2.65,2.65,0,0,1,.37-.24,3.56,3.56,0,0,1,.17.81c-.46,9.41,2.83,17.75,7.89,25.35,9,13.57,21,23.73,36.3,29.66a42.47,42.47,0,0,0,11.08,2.71C71.86,71.49,72.58,71.43,73.55,71.43ZM41,73.34a19.77,19.77,0,0,1-12.66-6.07,52.09,52.09,0,0,1-3.59-5,2.48,2.48,0,0,0-1-.82c-3-1.07-4.64,1.52-5.2,3.9a3.34,3.34,0,0,0,.83,3.11A15.29,15.29,0,0,0,26.92,73C31.58,74.17,36.3,73.68,41,73.34Z" transform="translate(-0.4 -0.54)"/><path class="cls-7" d="M44.64,2a28.74,28.74,0,0,1,3.56,15.4,9.78,9.78,0,0,1-1,3.28,1.53,1.53,0,0,1-1.36.65A3.75,3.75,0,0,1,44,19.87c-.83-1.52-1.41-3.17-2.19-5a18,18,0,0,0,1.41,6.71c1,2.78,2,5.56,2.71,8.41.43,1.76.74,3.74-.84,5.2,1.06,2.27,2.26,4.48,3.15,6.81a23.91,23.91,0,0,1,1.41,5.64A13,13,0,0,1,49,51.28c-2.39,0-2.85-1.93-3.9-3.32.22,3.4.42,6.65.63,10l-1.38-.1h0l-.71-.5-.51-.4-.75-.71h0l0-.2-.11.18L37.17,51.9l-.24-.28h0a10.63,10.63,0,0,0-.23-1.15c-.68-2.4-1.44-4.78-2.05-7.19a29.81,29.81,0,0,1-.47-3.54c-.5,2.63-.16,5.36-1.33,7.85l-3.37-3.85-.22-.3h0c-.06-.39-.1-.78-.18-1.17a27.57,27.57,0,0,1-.34-9.92c.33-1.9.46-3.83.66-5.6-.78,1-1.7,2.1-2.51,3.26-.58.82-1.1.86-1.67.08a3.74,3.74,0,0,1-.52-1.06,23,23,0,0,1-.3-12,44.39,44.39,0,0,1,3.91-11.5,5.14,5.14,0,0,0,.23-.79c3.31-1.34,6.63-2.53,10.29-2.46C40.77,2.32,42.7,2.08,44.64,2Z" transform="translate(-0.4 -0.54)"/><path class="cls-8" d="M28.54,4.75a5.14,5.14,0,0,1-.23.79A44.39,44.39,0,0,0,24.4,17a23,23,0,0,0,.3,12,3.74,3.74,0,0,0,.52,1.06c.57.78,1.09.74,1.67-.08.81-1.16,1.73-2.25,2.51-3.26-.2,1.77-.33,3.7-.66,5.6a27.57,27.57,0,0,0,.34,9.92c.08.39.12.78.18,1.17-1.71-2.39-3.57-4.69-5.1-7.2A46.54,46.54,0,0,1,17.67,19a68.38,68.38,0,0,1-.44-7,.85.85,0,0,1,.2-.65A31.78,31.78,0,0,1,28.54,4.75Z" transform="translate(-0.4 -0.54)"/><path class="cls-9" d="M32.85,47.6c1.17-2.49.83-5.22,1.33-7.85a29.81,29.81,0,0,0,.47,3.54c.61,2.41,1.37,4.79,2.05,7.19a10.63,10.63,0,0,1,.23,1.15Z" transform="translate(-0.4 -0.54)"/><path class="cls-5" d="M42.41,56.25l.75.71Z" transform="translate(-0.4 -0.54)"/><path class="cls-5" d="M43.67,57.36l.71.5Z" transform="translate(-0.4 -0.54)"/><path class="cls-8" d="M29.26,43.45l.22.3Z" transform="translate(-0.4 -0.54)"/><path class="cls-9" d="M36.93,51.62l.24.28Z" transform="translate(-0.4 -0.54)"/><path class="cls-5" d="M42.25,56.23l.11-.18,0,.2h-.07Z" transform="translate(-0.4 -0.54)"/><path class="cls-10" d="M41,73.34c-4.69.34-9.41.83-14.07-.38a15.29,15.29,0,0,1-7.58-4.54,3.34,3.34,0,0,1-.83-3.11c.56-2.38,2.23-5,5.2-3.9a2.48,2.48,0,0,1,1,.82,52.09,52.09,0,0,0,3.59,5A19.77,19.77,0,0,0,41,73.34Z" transform="translate(-0.4 -0.54)"/></g></g></svg>